HIERARCHY
ROOT Hips
{
  OFFSET 5.72205e-005 65.662 3.42586
  CHANNELS 6 Xposition Yposition Zposition Zrotation Xrotation Yrotation
  JOINT Chest
  {
    OFFSET 0 8.7983 -4.7612
    CHANNELS 6 Xposition Yposition Zposition Zrotation Xrotation Yrotation
    JOINT Chest2
    {
      OFFSET 0 8.0291 0.4195
      CHANNELS 6 Xposition Yposition Zposition Zrotation Xrotation Yrotation
      JOINT Chest3
      {
        OFFSET 0 9.9351 -2.2114
        CHANNELS 6 Xposition Yposition Zposition Zrotation Xrotation Yrotation
        JOINT Neck
        {
          OFFSET 0 22.3885 -0.4656
          CHANNELS 6 Xposition Yposition Zposition Zrotation Xrotation Yrotation
          JOINT Head
          {
            OFFSET -0.0001 12.643 3.4389
            CHANNELS 6 Xposition Yposition Zposition Zrotation Xrotation Yrotation
            End Site
            {
              OFFSET 0.0001 17.6655 0.5274
            }
          }
        }
        JOINT LeftCollar
        {
          OFFSET 2.2603 21.606 7.4023
          CHANNELS 6 Xposition Yposition Zposition Zrotation Xrotation Yrotation
          JOINT LeftShoulder
          {
            OFFSET 13.5163 -1.1332 -5.0146
            CHANNELS 6 Xposition Yposition Zposition Zrotation Xrotation Yrotation
            JOINT LeftElbow
            {
              OFFSET -0.0995 -28.05 -0.2431
              CHANNELS 6 Xposition Yposition Zposition Zrotation Xrotation Yrotation
              JOINT LeftWrist
              {
                OFFSET 0.0679 -23.3996 -0.1402
                CHANNELS 6 Xposition Yposition Zposition Zrotation Xrotation Yrotation
                JOINT LeftFinger1
                {
                  OFFSET 0.7932 -9.069 2.5189
                  CHANNELS 6 Xposition Yposition Zposition Zrotation Xrotation Yrotation
                  JOINT LeftFinger11
                  {
                    OFFSET -0.8272 -3.3923 0.5977
                    CHANNELS 6 Xposition Yposition Zposition Zrotation Xrotation Yrotation
                    JOINT LeftFinger12
                    {
                      OFFSET -0.5649 -2.3158 0.4082
                      CHANNELS 6 Xposition Yposition Zposition Zrotation Xrotation Yrotation
                      End Site
                      {
                        OFFSET -0.4919 -1.6479 0.2673
                      }
                    }
                  }
                }
                JOINT LeftFinger2
                {
                  OFFSET 0.9159 -9.2044 0.2193
                  CHANNELS 6 Xposition Yposition Zposition Zrotation Xrotation Yrotation
                  JOINT LeftFinger21
                  {
                    OFFSET 0.0117 -4.1944 -0.0248
                    CHANNELS 6 Xposition Yposition Zposition Zrotation Xrotation Yrotation
                    JOINT LeftFinger22
                    {
                      OFFSET 0.0071 -2.3249 -0.0142
                      CHANNELS 6 Xposition Yposition Zposition Zrotation Xrotation Yrotation
                      End Site
                      {
                        OFFSET -0.1475 -2.0882 0.0028
                      }
                    }
                  }
                }
                JOINT LeftFinger3
                {
                  OFFSET 0.6113 -8.7231 -2.0637
                  CHANNELS 6 Xposition Yposition Zposition Zrotation Xrotation Yrotation
                  JOINT LeftFinger31
                  {
                    OFFSET -0.1927 -3.8059 -0.2383
                    CHANNELS 6 Xposition Yposition Zposition Zrotation Xrotation Yrotation
                    JOINT LeftFinger32
                    {
                      OFFSET -0.1091 -2.1688 -0.1362
                      CHANNELS 6 Xposition Yposition Zposition Zrotation Xrotation Yrotation
                      End Site
                      {
                        OFFSET -0.2358 -1.9176 -0.0906
                      }
                    }
                  }
                }
                JOINT LeftFinger4
                {
                  OFFSET -0.6151 -8.0947 -3.5641
                  CHANNELS 6 Xposition Yposition Zposition Zrotation Xrotation Yrotation
                  JOINT LeftFinger41
                  {
                    OFFSET -0.4882 -2.341 -0.6462
                    CHANNELS 6 Xposition Yposition Zposition Zrotation Xrotation Yrotation
                    JOINT LeftFinger42
                    {
                      OFFSET -0.3575 -1.7167 -0.4742
                      CHANNELS 6 Xposition Yposition Zposition Zrotation Xrotation Yrotation
                      End Site
                      {
                        OFFSET -0.4187 -1.5237 -0.3496
                      }
                    }
                  }
                }
                JOINT LeftFinger0
                {
                  OFFSET -1.42 -1.8761 1.4223
                  CHANNELS 6 Xposition Yposition Zposition Zrotation Xrotation Yrotation
                  JOINT LeftFinger01
                  {
                    OFFSET -1.1471 -3.4929 2.6334
                    CHANNELS 6 Xposition Yposition Zposition Zrotation Xrotation Yrotation
                    JOINT LeftFinger02
                    {
                      OFFSET -0.823 -2.3 1.6571
                      CHANNELS 6 Xposition Yposition Zposition Zrotation Xrotation Yrotation
                      End Site
                      {
                        OFFSET -0.5822 -1.6914 1.1582
                      }
                    }
                  }
                }
              }
            }
          }
        }
        JOINT RightCollar
        {
          OFFSET -2.2603 21.606 7.4023
          CHANNELS 6 Xposition Yposition Zposition Zrotation Xrotation Yrotation
          JOINT RightShoulder
          {
            OFFSET -13.5187 -1.1334 -5.0155
            CHANNELS 6 Xposition Yposition Zposition Zrotation Xrotation Yrotation
            JOINT RightElbow
            {
              OFFSET 0.0994 -28.0499 -0.2431
              CHANNELS 6 Xposition Yposition Zposition Zrotation Xrotation Yrotation
              JOINT RightWrist
              {
                OFFSET -0.0679 -23.3996 -0.1402
                CHANNELS 6 Xposition Yposition Zposition Zrotation Xrotation Yrotation
                JOINT RightFinger1
                {
                  OFFSET -0.7932 -9.0691 2.5189
                  CHANNELS 6 Xposition Yposition Zposition Zrotation Xrotation Yrotation
                  JOINT RightFinger11
                  {
                    OFFSET 0.8272 -3.3923 0.5977
                    CHANNELS 6 Xposition Yposition Zposition Zrotation Xrotation Yrotation
                    JOINT RightFinger12
                    {
                      OFFSET 0.565 -2.3158 0.4082
                      CHANNELS 6 Xposition Yposition Zposition Zrotation Xrotation Yrotation
                      End Site
                      {
                        OFFSET 0.4919 -1.6479 0.2673
                      }
                    }
                  }
                }
                JOINT RightFinger2
                {
                  OFFSET -0.916 -9.2044 0.2193
                  CHANNELS 6 Xposition Yposition Zposition Zrotation Xrotation Yrotation
                  JOINT RightFinger21
                  {
                    OFFSET -0.0117 -4.1944 -0.0248
                    CHANNELS 6 Xposition Yposition Zposition Zrotation Xrotation Yrotation
                    JOINT RightFinger22
                    {
                      OFFSET -0.0071 -2.3249 -0.0142
                      CHANNELS 6 Xposition Yposition Zposition Zrotation Xrotation Yrotation
                      End Site
                      {
                        OFFSET 0.1475 -2.0882 0.0028
                      }
                    }
                  }
                }
                JOINT RightFinger3
                {
                  OFFSET -0.6113 -8.7231 -2.0637
                  CHANNELS 6 Xposition Yposition Zposition Zrotation Xrotation Yrotation
                  JOINT RightFinger31
                  {
                    OFFSET 0.1927 -3.8059 -0.2383
                    CHANNELS 6 Xposition Yposition Zposition Zrotation Xrotation Yrotation
                    JOINT RightFinger32
                    {
                      OFFSET 0.1091 -2.1688 -0.1362
                      CHANNELS 6 Xposition Yposition Zposition Zrotation Xrotation Yrotation
                      End Site
                      {
                        OFFSET 0.2358 -1.9176 -0.0906
                      }
                    }
                  }
                }
                JOINT RightFinger4
                {
                  OFFSET 0.6151 -8.0947 -3.564
                  CHANNELS 6 Xposition Yposition Zposition Zrotation Xrotation Yrotation
                  JOINT RightFinger41
                  {
                    OFFSET 0.4882 -2.341 -0.6462
                    CHANNELS 6 Xposition Yposition Zposition Zrotation Xrotation Yrotation
                    JOINT RightFinger42
                    {
                      OFFSET 0.3574 -1.7166 -0.4742
                      CHANNELS 6 Xposition Yposition Zposition Zrotation Xrotation Yrotation
                      End Site
                      {
                        OFFSET 0.4187 -1.5237 -0.3496
                      }
                    }
                  }
                }
                JOINT RightFinger0
                {
                  OFFSET 1.4199 -1.8761 1.4221
                  CHANNELS 6 Xposition Yposition Zposition Zrotation Xrotation Yrotation
                  JOINT RightFinger01
                  {
                    OFFSET 1.1472 -3.4929 2.6336
                    CHANNELS 6 Xposition Yposition Zposition Zrotation Xrotation Yrotation
                    JOINT RightFinger02
                    {
                      OFFSET 0.8229 -2.3 1.6571
                      CHANNELS 6 Xposition Yposition Zposition Zrotation Xrotation Yrotation
                      End Site
                      {
                        OFFSET 0.5822 -1.6914 1.1582
                      }
                    }
                  }
                }
              }
            }
          }
        }
      }
    }
  }
  JOINT RightHip
  {
    OFFSET -9.412 3.9771 -0.7758
    CHANNELS 6 Xposition Yposition Zposition Zrotation Xrotation Yrotation
    JOINT RightKnee
    {
      OFFSET -0.7531 -40.938 0
      CHANNELS 6 Xposition Yposition Zposition Zrotation Xrotation Yrotation
      JOINT RightAnkle
      {
        OFFSET 0 -40.1986 0
        CHANNELS 6 Xposition Yposition Zposition Zrotation Xrotation Yrotation
        JOINT RightToe
        {
          OFFSET 0 -4.4182 9.239
          CHANNELS 6 Xposition Yposition Zposition Zrotation Xrotation Yrotation
          End Site
          {
            OFFSET 0 0 6.1981
          }
        }
      }
    }
  }
  JOINT LeftHip
  {
    OFFSET 9.4119 3.9773 -0.7758
    CHANNELS 6 Xposition Yposition Zposition Zrotation Xrotation Yrotation
    JOINT LeftKnee
    {
      OFFSET 0.7532 -40.9383 0
      CHANNELS 6 Xposition Yposition Zposition Zrotation Xrotation Yrotation
      JOINT LeftAnkle
      {
        OFFSET 0 -40.1986 0
        CHANNELS 6 Xposition Yposition Zposition Zrotation Xrotation Yrotation
        JOINT LeftToe
        {
          OFFSET 0 -4.4182 9.239
          CHANNELS 6 Xposition Yposition Zposition Zrotation Xrotation Yrotation
          End Site
          {
            OFFSET 0 0 6.1981
          }
        }
      }
    }
  }
}
MOTION
Frames:	4
Frame Time:	0.0333333
5.72205e-005 65.662 3.42586 0 0 -0 0 8.7983 -4.7612 0 0 -0 0 8.0291 0.4195 0 0 -0 0 9.9351 -2.2114 0 0 -0 0 22.3885 -0.4656 0 0 -0 -0.0001 12.643 3.4389 0 0 -0 2.2603 21.606 7.4023 0 0 -12.5014 13.5163 -1.1332 -5.0146 88.1196 14.2451 10.6914 -0.0995 -28.05 -0.2431 -0.00160068 -0.00239207 0.000740045 0.0679 -23.3996 -0.1402 -8.4365e-005 7.00714e-005 -9.52055e-007 0.7932 -9.069 2.5189 9.93923e-017 -1.98785e-016 -1.59028e-015 -0.8272 -3.3923 0.5977 9.93923e-017 -5.96354e-016 -1.59028e-015 -0.5649 -2.3158 0.4082 -9.93923e-017 -5.96354e-016 -1.59028e-015 0.9159 -9.2044 0.2193 9.93923e-017 -1.98785e-016 -1.59028e-015 0.0117 -4.1944 -0.0248 -0.0128176 0.00232552 8.52707e-005 0.0071 -2.3249 -0.0142 9.93923e-017 5.96354e-016 -0 0.6113 -8.7231 -2.0637 9.93923e-017 -1.98785e-016 -1.59028e-015 -0.1927 -3.8059 -0.2383 -0.0160551 0.00299681 0.000857156 -0.1091 -2.1688 -0.1362 -2.48481e-016 0 3.18055e-015 -0.6151 -8.0947 -3.5641 9.93923e-017 -1.98785e-016 -1.59028e-015 -0.4882 -2.341 -0.6462 -0.0125865 0.0031206 0.00282719 -0.3575 -1.7167 -0.4742 0 1.98785e-016 -0 -1.42 -1.8761 1.4223 9.93923e-017 -1.98785e-016 -1.59028e-015 -1.1471 -3.4929 2.6334 9.93923e-017 -5.96354e-016 -1.59028e-015 -0.823 -2.3 1.6571 -9.93923e-017 -5.96354e-016 -1.59028e-015 -2.2603 21.606 7.4023 -0.865644 0.16582 7.03859 -13.5187 -1.1334 -5.0155 -88.0329 10.2057 -10.5567 0.0994 -28.0499 -0.2431 0.0015593 -0.00248883 -0.000788628 -0.0679 -23.3996 -0.1402 7.87605e-005 4.10553e-005 1.24965e-005 -0.7932 -9.0691 2.5189 -3.97569e-016 -7.95139e-016 3.18055e-015 0.8272 -3.3923 0.5977 -1.98785e-016 -3.97569e-016 3.18055e-015 0.565 -2.3158 0.4082 -1.98785e-016 0 3.18055e-015 -0.916 -9.2044 0.2193 -3.97569e-016 -7.95139e-016 3.18055e-015 -0.0117 -4.1944 -0.0248 0.0129473 0.00231697 -8.70038e-005 -0.0071 -2.3249 -0.0142 9.93923e-017 -7.95139e-016 1.59028e-015 -0.6113 -8.7231 -2.0637 -3.97569e-016 -7.95139e-016 3.18055e-015 0.1927 -3.8059 -0.2383 0.0163314 0.00303369 -0.000872333 0.1091 -2.1688 -0.1362 3.97569e-016 7.95139e-016 -3.18055e-015 0.6151 -8.0947 -3.564 -3.97569e-016 -7.95139e-016 3.18055e-015 0.4882 -2.341 -0.6462 0.0145763 0.00367772 -0.00326275 0.3574 -1.7166 -0.4742 9.93923e-017 -3.97569e-016 -0 1.4199 -1.8761 1.4221 -3.97569e-016 -7.95139e-016 3.18055e-015 1.1472 -3.4929 2.6336 -1.98785e-016 -3.97569e-016 3.18055e-015 0.8229 -2.3 1.6571 -1.98785e-016 0 3.18055e-015 -9.412 3.9771 -0.7758 3.42482 1.32465 -0.0626183 -0.7531 -40.938 0 0.000117508 0.717283 0.000978199 0 -40.1986 0 -3.4257 -2.04197 -0.0604716 8.88178e-016 -4.4182 9.239 6.47761e-025 0 -0 9.4119 3.9773 -0.7758 -3.42483 1.34017 0.0627307 0.7532 -40.9383 -2.22045e-016 -0.000193936 0.682302 -0.0013703 -8.88179e-016 -40.1986 0 3.42574 -2.02253 0.0595886 -8.88178e-016 -4.4182 9.239 -8.45714e-024 0 -7.40531e-025 
0.0170398 65.8497 -0.726814 2.82041e-007 17.3364 1.78177e-007 -3.46945e-018 8.7983 -4.7612 -0.266006 6.62103 -0.188973 5.55112e-017 8.0291 0.4195 -0.515071 13.2429 -0.350304 -2.22045e-016 9.9351 -2.2114 -0.515074 13.2429 -0.350306 4.44089e-016 22.3885 -0.4656 4.96379e-007 7.26414 7.41381e-007 -0.0001 12.643 3.4389 3.27827e-007 18.6874 -4.85801e-007 2.2603 21.606 7.4023 3.30961 -1.88976 -8.64154 13.5163 -1.1332 -5.0146 4.4721 4.22123 24.8798 -0.0995 -28.05 -0.2431 -23.5947 4.18641 -5.63379 0.0679 -23.3996 -0.1402 -5.79587 -30.0334 -4.70046 0.7932 -9.069 2.5189 5.14513e-007 1.61212e-006 -1.53746e-006 -0.8272 -3.3923 0.5977 1.59028e-015 3.18055e-015 6.36111e-015 -0.5649 -2.3158 0.4082 -2.38542e-015 -3.18055e-015 3.18055e-015 0.9159 -9.2044 0.2193 5.14513e-007 1.61212e-006 -1.53746e-006 0.0117 -4.1944 -0.0248 -0.0128234 0.00232958 8.75157e-005 0.0071 -2.3249 -0.0142 -1.59028e-015 -3.18055e-015 -0 0.6113 -8.7231 -2.0637 5.14513e-007 1.61212e-006 -1.53746e-006 -0.1927 -3.8059 -0.2383 -0.0160633 0.0030046 0.000862793 -0.1091 -2.1688 -0.1362 3.18055e-015 -6.36111e-015 3.18055e-015 -0.6151 -8.0947 -3.5641 5.14513e-007 1.61212e-006 -1.53746e-006 -0.4882 -2.341 -0.6462 -0.0125758 0.00312638 0.00282706 -0.3575 -1.7167 -0.4742 5.14479e-007 -1.2434e-007 -1.5374e-006 -1.42 -1.8761 1.4223 5.14513e-007 1.61212e-006 -1.53746e-006 -1.1471 -3.4929 2.6334 1.59028e-015 3.18055e-015 6.36111e-015 -0.823 -2.3 1.6571 -2.38542e-015 -3.18055e-015 3.18055e-015 -2.2603 21.606 7.4023 10.6668 -1.2541 15.2991 -13.5187 -1.1334 -5.0155 -18.2143 -25.142 13.9257 0.0994 -28.0499 -0.2431 14.5779 -37.1276 9.68144 -0.0679 -23.3996 -0.1402 7.45637 -7.29501 -20.159 -0.7932 -9.0691 2.5189 5.1684e-015 0 -1.59028e-015 0.8272 -3.3923 0.5977 1.41287e-007 -1.05668e-008 8.22014e-007 0.565 -2.3158 0.4082 -2.78299e-015 1.67545e-006 1.59028e-015 -0.916 -9.2044 0.2193 5.1684e-015 0 -1.59028e-015 -0.0117 -4.1944 -0.0248 0.0129652 0.00231351 -8.32873e-005 -0.0071 -2.3249 -0.0142 -2.78299e-015 -3.18055e-015 3.18055e-015 -0.6113 -8.7231 -2.0637 5.1684e-015 0 -1.59028e-015 0.1927 -3.8059 -0.2383 0.0163054 0.0030372 -0.000872351 0.1091 -2.1688 -0.1362 5.96354e-015 -1.59028e-015 3.18055e-015 0.6151 -8.0947 -3.564 5.1684e-015 0 -1.59028e-015 0.4882 -2.341 -0.6462 0.0145661 0.0036751 -0.00326138 0.3574 -1.7166 -0.4742 3.97569e-015 -1.59028e-015 3.18055e-015 1.4199 -1.8761 1.4221 5.1684e-015 0 -1.59028e-015 1.1472 -3.4929 2.6336 1.41287e-007 -1.05668e-008 8.22014e-007 0.8229 -2.3 1.6571 -2.78299e-015 1.67545e-006 1.59028e-015 -9.412 3.9771 -0.7758 1.84635 -12.3607 -15.7899 -0.7531 -40.938 -8.88178e-016 -155.149 74.2562 152.691 1.77636e-015 -40.1986 -7.10543e-015 12.1553 23.7274 -14.7848 0 -4.4182 9.239 -1.82649e-006 5.3189e-006 1.52287e-006 9.4119 3.9773 -0.7758 -1.74349 -14.7545 15.7235 0.7532 -40.9383 -6.66134e-016 148.232 75.9845 -146.48 0 -40.1986 3.55271e-015 -32.1088 50.6129 52.6343 0 -4.4182 9.239 -3.18055e-015 3.18055e-015 -4.77083e-015 
0.015574 65.7514 -0.908462 -6.3958e-009 17.5501 2.97777e-008 1.73472e-018 8.7983 -4.7612 -0.254735 5.31441 -0.17427 5.55112e-017 8.0291 0.4195 -0.49638 10.6296 -0.326813 0 9.9351 -2.2114 -0.496382 10.6296 -0.326814 0 22.3885 -0.4656 -5.06215e-007 6.21974 -5.28976e-007 -0.0001 12.643 3.4389 2.68391e-007 16.0042 1.98821e-008 2.2603 21.606 7.4023 3.60414 1.3126 -8.5113 13.5163 -1.1332 -5.0146 9.26042 5.18802 24.6272 -0.0995 -28.05 -0.2431 -22.9499 4.08075 -5.10666 0.0679 -23.3996 -0.1402 -5.20385 -28.1781 -5.08387 0.7932 -9.069 2.5189 -5.13416e-006 5.52428e-006 7.13798e-007 -0.8272 -3.3923 0.5977 -2.5753e-007 1.73181e-006 7.89238e-007 -0.5649 -2.3158 0.4082 5.45417e-007 1.60783e-006 -6.56936e-007 0.9159 -9.2044 0.2193 -5.13416e-006 5.52428e-006 7.13798e-007 0.0117 -4.1944 -0.0248 -0.0128486 0.00232313 8.251e-005 0.0071 -2.3249 -0.0142 -3.18055e-015 0 -0 0.6113 -8.7231 -2.0637 -5.13416e-006 5.52428e-006 7.13798e-007 -0.1927 -3.8059 -0.2383 -0.0160386 0.00299345 0.00085995 -0.1091 -2.1688 -0.1362 -1.13797e-007 -5.20964e-009 1.71905e-006 -0.6151 -8.0947 -3.5641 -5.13416e-006 5.52428e-006 7.13798e-007 -0.4882 -2.341 -0.6462 -0.0125688 0.00310857 0.00282249 -0.3575 -1.7167 -0.4742 -3.53113e-031 -6.36111e-015 -3.18055e-015 -1.42 -1.8761 1.4223 -5.13416e-006 5.52428e-006 7.13798e-007 -1.1471 -3.4929 2.6334 -2.5753e-007 1.73181e-006 7.89238e-007 -0.823 -2.3 1.6571 5.45417e-007 1.60783e-006 -6.56936e-007 -2.2603 21.606 7.4023 8.26414 -0.259965 14.6186 -13.5187 -1.1334 -5.0155 -19.2126 -21.1278 12.9327 0.0994 -28.0499 -0.2431 13.5523 -34.9612 8.94641 -0.0679 -23.3996 -0.1402 5.49225 -5.08996 -21.3186 -0.7932 -9.0691 2.5189 -3.97569e-015 8.76225e-007 -3.18055e-015 0.8272 -3.3923 0.5977 -1.98785e-016 -8.76225e-007 -0 0.565 -2.3158 0.4082 -7.15625e-015 0 -1.59028e-015 -0.916 -9.2044 0.2193 -3.97569e-015 8.76225e-007 -3.18055e-015 -0.0117 -4.1944 -0.0248 0.0129753 0.00232109 -8.69147e-005 -0.0071 -2.3249 -0.0142 1.98785e-016 1.59028e-015 -1.59028e-015 -0.6113 -8.7231 -2.0637 -3.97569e-015 8.76225e-007 -3.18055e-015 0.1927 -3.8059 -0.2383 0.0162993 0.00303236 -0.000871615 0.1091 -2.1688 -0.1362 7.55382e-015 0 -4.77083e-015 0.6151 -8.0947 -3.564 -3.97569e-015 8.76225e-007 -3.18055e-015 0.4882 -2.341 -0.6462 0.0145647 0.00367384 -0.00325792 0.3574 -1.7166 -0.4742 6.75868e-015 -1.59028e-015 -1.59028e-015 1.4199 -1.8761 1.4221 -3.97569e-015 8.76225e-007 -3.18055e-015 1.1472 -3.4929 2.6336 -1.98785e-016 -8.76225e-007 -0 0.8229 -2.3 1.6571 -7.15625e-015 0 -1.59028e-015 -9.412 3.9771 -0.7758 1.97698 -13.3791 -14.7146 -0.7531 -40.938 4.44089e-016 -144.696 79.1435 142.766 0 -40.1986 -3.55271e-015 10.6958 22.2919 -13.6866 0 -4.4182 9.239 -1.63696e-006 9.935e-008 8.05723e-007 9.4119 3.9773 -0.7758 -1.84838 -15.5364 14.6059 0.7532 -40.9383 -2.22045e-016 135.354 80.0947 -133.982 -1.77636e-015 -40.1986 -3.55271e-015 -25.6527 49.0888 46.2187 3.55271e-015 -4.4182 9.239 -1.7974e-006 4.42643e-007 -2.10885e-007 
0.0157199 65.7228 -1.29139 1.05932e-009 18.7162 -1.70033e-008 0 8.7983 -4.7612 -0.253825 4.41673 -0.176048 -5.55112e-017 8.0291 0.4195 -0.496212 8.83419 -0.333897 -2.22045e-016 9.9351 -2.2114 -0.496213 8.8342 -0.333898 -8.88178e-016 22.3885 -0.4656 -4.27535e-007 5.63676 -5.05212e-007 -0.0001 12.643 3.4389 -3.08967e-007 14.5058 -7.99546e-008 2.2603 21.606 7.4023 4.05982 4.25543 -8.19624 13.5163 -1.1332 -5.0146 9.26042 5.18804 24.6272 -0.0995 -28.05 -0.2431 -23.546 4.17766 -5.30681 0.0679 -23.3996 -0.1402 -5.01985 -28.0922 -5.79755 0.7932 -9.069 2.5189 -2.63279e-006 -4.2835e-007 -1.50869e-006 -0.8272 -3.3923 0.5977 7.95139e-016 6.36111e-015 -0 -0.5649 -2.3158 0.4082 4.35847e-007 1.60226e-006 1.09385e-006 0.9159 -9.2044 0.2193 -2.63279e-006 -4.2835e-007 -1.50869e-006 0.0117 -4.1944 -0.0248 -0.0128162 0.00232659 8.57198e-005 0.0071 -2.3249 -0.0142 -1.0056e-007 -7.11306e-009 1.72329e-006 0.6113 -8.7231 -2.0637 -2.63279e-006 -4.2835e-007 -1.50869e-006 -0.1927 -3.8059 -0.2383 -0.0160636 0.00299624 0.000857486 -0.1091 -2.1688 -0.1362 -1.00561e-007 -4.58254e-008 1.72328e-006 -0.6151 -8.0947 -3.5641 -2.63279e-006 -4.2835e-007 -1.50869e-006 -0.4882 -2.341 -0.6462 -0.0126234 0.00313461 0.00283572 -0.3575 -1.7167 -0.4742 8.04767e-007 -6.62178e-008 2.74107e-007 -1.42 -1.8761 1.4223 -2.63279e-006 -4.2835e-007 -1.50869e-006 -1.1471 -3.4929 2.6334 7.95139e-016 6.36111e-015 -0 -0.823 -2.3 1.6571 4.35847e-007 1.60226e-006 1.09385e-006 -2.2603 21.606 7.4023 6.64441 0.608702 14.4604 -13.5187 -1.1334 -5.0155 -16.4758 -19.4611 13.3299 0.0994 -28.0499 -0.2431 13.5504 -34.9615 8.97817 -0.0679 -23.3996 -0.1402 4.11376 -3.35318 -23.4892 -0.7932 -9.0691 2.5189 -2.1815e-007 1.0834e-008 -1.66713e-006 0.8272 -3.3923 0.5977 -2.38542e-015 0 -0 0.565 -2.3158 0.4082 4.17448e-015 -7.95139e-016 -0 -0.916 -9.2044 0.2193 -2.1815e-007 1.0834e-008 -1.66713e-006 -0.0117 -4.1944 -0.0248 0.0129699 0.00232265 -8.69327e-005 -0.0071 -2.3249 -0.0142 -5.96354e-016 -8.66874e-007 1.59028e-015 -0.6113 -8.7231 -2.0637 -2.1815e-007 1.0834e-008 -1.66713e-006 0.1927 -3.8059 -0.2383 0.0163104 0.00302983 -0.000872098 0.1091 -2.1688 -0.1362 7.55382e-015 1.59028e-015 -0 0.6151 -8.0947 -3.564 -2.1815e-007 1.0834e-008 -1.66713e-006 0.4882 -2.341 -0.6462 0.0145548 0.00367398 -0.00325833 0.3574 -1.7166 -0.4742 -2.98177e-015 -3.97569e-015 1.59028e-015 1.4199 -1.8761 1.4221 -2.1815e-007 1.0834e-008 -1.66713e-006 1.1472 -3.4929 2.6336 -2.38542e-015 0 -0 0.8229 -2.3 1.6571 4.17448e-015 -7.95139e-016 -0 -9.412 3.9771 -0.7758 1.9167 -14.9969 -14.8428 -0.7531 -40.938 -4.44089e-016 -145.997 78.7199 144.011 0 -40.1986 0 10.7038 22.2664 -13.7025 -3.55271e-015 -4.4182 9.239 -3.18055e-015 -1.27222e-014 1.59028e-015 9.4119 3.9773 -0.7758 -1.80528 -17.0457 14.7163 0.7532 -40.9383 -9.99201e-016 136.637 79.7965 -135.226 1.77636e-015 -40.1986 3.55271e-015 -25.6756 49.0753 46.2444 0 -4.4182 9.239 -2.38542e-015 1.9459e-007 -0 
